          <svg class="happy-face" viewBox="0 0 59 51" version="1.1" xmlns="http://www.w3.org/2000/svg" xmlns:xlink="http://www.w3.org/1999/xlink">
            <g id="Canvas" transform="translate(1337 -940)">
            <g id="happy face">
            <g id="Ellipse">
            <use xlink:href="#path0_fill" transform="translate(-1337 940)" fill="#8A8B8A"/>
            </g>
            <g id="Ellipse">
            <use xlink:href="#path0_fill" transform="translate(-1290 940)" fill="#8A8B8A"/>
            </g>
            <g id="Rectangle" filter="url(#filter0_i)">
            <use xlink:href="#path1_fill" transform="translate(-1337 971)" fill="#C4C4C4"/>
            </g>
            </g>
            </g>
            <defs>
            <filter id="filter0_i" filterUnits="userSpaceOnUse" x="-1337" y="971" width="63" height="24" color-interpolation-filters="sRGB">
            <feFlood flood-opacity="0" result="BackgroundImageFix"/>
            <feBlend mode="normal" in="SourceGraphic" in2="BackgroundImageFix" result="shape"/>
            <feColorMatrix in="SourceAlpha" type="matrix" values="0 0 0 0 0 0 0 0 0 0 0 0 0 0 0 0 0 0 255 0" result="hardAlpha"/>
            <feOffset dx="4" dy="4"/>
            <feGaussianBlur stdDeviation="6"/>
            <feComposite in2="hardAlpha" operator="arithmetic" k2="-1" k3="1"/>
            <feColorMatrix type="matrix" values="0 0 0 0 0 0 0 0 0 0 0 0 0 0 0 0 0 0 0.25 0"/>
            <feBlend mode="normal" in2="shape" result="effect1_innerShadow"/>
            </filter>
            <path id="path0_fill" d="M 12 6C 12 9.31371 9.31371 12 6 12C 2.68629 12 0 9.31371 0 6C 0 2.68629 2.68629 0 6 0C 9.31371 0 12 2.68629 12 6Z"/>
            <path id="path1_fill" d="M 0 2.22222C 0 0.994923 0.994923 0 2.22222 0L 56.7778 0C 58.0051 0 59 0.994923 59 2.22222L 59 2.22222C 59 12.0406 51.0406 20 41.2222 20L 17.7778 20C 7.95938 20 0 12.0406 0 2.22222L 0 2.22222Z"/>
            </defs>
          </svg>